<?xml version="1.0" encoding="utf-8"?>
<!-- Generator: Adobe Illustrator 16.0.0, SVG Export Plug-In . SVG Version: 6.00 Build 0)  -->
<!DOCTYPE svg PUBLIC "-//W3C//DTD SVG 1.1//EN" "http://www.w3.org/Graphics/SVG/1.1/DTD/svg11.dtd">
<svg version="1.1" id="Layer_1" xmlns="http://www.w3.org/2000/svg" xmlns:xlink="http://www.w3.org/1999/xlink" x="0px" y="0px"
	 width="250px" height="20px" viewBox="9 -1.75 250 20" enable-background="new 9 -1.75 250 20" xml:space="preserve">
<g>
	<path fill="#FFFFFF" d="M21.311,13.496c-0.698,0.35-2.094,0.698-3.882,0.698c-4.144,0-7.262-2.618-7.262-7.438
		c0-4.603,3.118-7.721,7.677-7.721c1.832,0,2.988,0.393,3.49,0.654l-0.458,1.549c-0.72-0.349-1.745-0.611-2.967-0.611
		c-3.446,0-5.736,2.203-5.736,6.063c0,3.599,2.072,5.911,5.648,5.911c1.156,0,2.333-0.24,3.098-0.611L21.311,13.496z"/>
	<path fill="#FFFFFF" d="M23.076-1.511h1.919v6.587h0.043c0.306-0.544,0.785-1.025,1.375-1.352c0.567-0.328,1.243-0.546,1.963-0.546
		c1.417,0,3.686,0.873,3.686,4.516v6.282h-1.919V7.913c0-1.702-0.633-3.141-2.443-3.141c-1.243,0-2.225,0.873-2.574,1.919
		c-0.109,0.262-0.131,0.545-0.131,0.916v6.369h-1.919L23.076-1.511L23.076-1.511z"/>
	<path fill="#FFFFFF" d="M36.771,0.452c0.021,0.655-0.458,1.178-1.222,1.178c-0.676,0-1.156-0.523-1.156-1.178
		c0-0.676,0.502-1.199,1.2-1.199C36.313-0.747,36.771-0.224,36.771,0.452z M34.635,13.975V3.419h1.919v10.555H34.635z"/>
	<path fill="#FFFFFF" d="M39.192-1.511h1.919v15.485h-1.919V-1.511z"/>
	<path fill="#FFFFFF" d="M52.91-1.511v12.759c0,0.938,0.021,2.007,0.087,2.727h-1.724l-0.087-1.832h-0.044
		c-0.589,1.179-1.875,2.072-3.599,2.072c-2.551,0-4.515-2.159-4.515-5.366c-0.021-3.512,2.16-5.67,4.733-5.67
		c1.614,0,2.705,0.764,3.184,1.614h0.043v-6.303H52.91z M50.991,7.716c0-0.241-0.021-0.567-0.087-0.808
		c-0.284-1.222-1.33-2.224-2.77-2.224c-1.985,0-3.163,1.745-3.163,4.078c0,2.137,1.048,3.904,3.119,3.904
		c1.287,0,2.464-0.852,2.813-2.29c0.066-0.262,0.087-0.523,0.087-0.83V7.716z"/>
	<path fill="#FFFFFF" d="M55.548,6.712c0-1.243-0.021-2.312-0.087-3.294h1.679l0.065,2.072h0.087
		c0.48-1.417,1.636-2.312,2.923-2.312c0.218,0,0.371,0.021,0.545,0.065v1.811c-0.196-0.044-0.392-0.065-0.654-0.065
		c-1.353,0-2.312,1.025-2.574,2.464c-0.043,0.262-0.088,0.567-0.088,0.893v5.628h-1.897V6.712H55.548z"/>
	<path fill="#FFFFFF" d="M62.983,9.045c0.044,2.595,1.702,3.666,3.621,3.666c1.375,0,2.203-0.24,2.923-0.547l0.327,1.375
		c-0.676,0.307-1.831,0.655-3.511,0.655c-3.25,0-5.19-2.139-5.19-5.323c0-3.184,1.875-5.692,4.951-5.692
		c3.446,0,4.362,3.032,4.362,4.972c0,0.394-0.043,0.698-0.065,0.895H62.983z M68.61,7.672c0.021-1.222-0.502-3.119-2.66-3.119
		c-1.94,0-2.792,1.788-2.944,3.119H68.61z"/>
	<path fill="#FFFFFF" d="M72.295,6.276c0-1.091-0.021-1.985-0.087-2.857h1.701l0.109,1.745h0.043
		c0.523-1.003,1.745-1.985,3.49-1.985c1.461,0,3.729,0.873,3.729,4.493v6.303h-1.919V7.89c0-1.701-0.633-3.12-2.443-3.12
		c-1.264,0-2.247,0.894-2.574,1.963c-0.087,0.241-0.131,0.568-0.131,0.894v6.348h-1.919L72.295,6.276L72.295,6.276z"/>
	<path fill="#FFFFFF" d="M85.556-0.964c-0.502,1.832-1.44,4.166-2.051,5.168l-1.222,0.153c0.479-1.287,1.047-3.556,1.287-5.125
		L85.556-0.964z"/>
	<path fill="#FFFFFF" d="M85.271,12.012c0.567,0.371,1.571,0.764,2.53,0.764c1.396,0,2.05-0.697,2.05-1.57
		c0-0.916-0.545-1.417-1.963-1.941c-1.897-0.676-2.792-1.723-2.792-2.987c0-1.702,1.375-3.098,3.643-3.098
		c1.069,0,2.006,0.306,2.595,0.655l-0.48,1.396c-0.414-0.262-1.178-0.611-2.159-0.611c-1.134,0-1.767,0.654-1.767,1.44
		c0,0.872,0.632,1.265,2.007,1.789c1.832,0.698,2.771,1.613,2.771,3.184c0,1.854-1.44,3.161-3.948,3.161
		c-1.156,0-2.224-0.284-2.967-0.718L85.271,12.012z"/>
	<path fill="#FFFFFF" d="M99.381,13.975L95.652-0.725h2.007l1.745,7.437c0.437,1.833,0.829,3.666,1.091,5.081h0.043
		c0.239-1.459,0.698-3.204,1.199-5.102l1.963-7.415h1.984l1.789,7.458c0.415,1.745,0.807,3.49,1.025,5.039h0.044
		c0.305-1.613,0.72-3.25,1.178-5.082l1.941-7.415h1.94l-4.166,14.7h-1.984l-1.854-7.655c-0.458-1.875-0.764-3.315-0.959-4.798
		h-0.043c-0.261,1.461-0.588,2.9-1.134,4.798l-2.094,7.655h-1.986V13.975z"/>
	<path fill="#FFFFFF" d="M123.655,8.609c0,3.905-2.704,5.606-5.256,5.606c-2.857,0-5.06-2.094-5.06-5.431
		c0-3.533,2.312-5.605,5.234-5.605C121.604,3.179,123.655,5.382,123.655,8.609z M115.28,8.72c0,2.311,1.331,4.055,3.206,4.055
		c1.833,0,3.206-1.724,3.206-4.1c0-1.789-0.894-4.057-3.162-4.057S115.28,6.712,115.28,8.72z"/>
	<path fill="#FFFFFF" d="M125.529,6.712c0-1.243-0.021-2.312-0.087-3.294h1.679l0.065,2.072h0.087
		c0.48-1.417,1.636-2.312,2.922-2.312c0.218,0,0.371,0.021,0.546,0.065v1.811c-0.197-0.044-0.393-0.065-0.655-0.065
		c-1.353,0-2.312,1.025-2.574,2.464c-0.044,0.262-0.087,0.567-0.087,0.893v5.628h-1.898V6.712H125.529z"/>
	<path fill="#FFFFFF" d="M134.1,8.26h0.044c0.262-0.37,0.632-0.828,0.938-1.199l3.098-3.643h2.312l-4.08,4.34l4.646,6.216h-2.333
		l-3.644-5.062l-0.979,1.091v3.971h-1.898V-1.511h1.898V8.26L134.1,8.26z"/>
	<path fill="#FFFFFF" d="M142.081,13.975V4.88h-1.482V3.419h1.482V2.917c0-1.483,0.327-2.836,1.223-3.686
		c0.718-0.699,1.681-0.982,2.573-0.982c0.677,0,1.264,0.153,1.637,0.306l-0.262,1.483c-0.284-0.131-0.677-0.24-1.223-0.24
		c-1.637,0-2.049,1.439-2.049,3.053v0.567h2.551V4.88h-2.551v9.094H142.081z"/>
	<path fill="#FFFFFF" d="M156.977,8.609c0,3.905-2.704,5.606-5.256,5.606c-2.857,0-5.062-2.094-5.062-5.431
		c0-3.533,2.312-5.605,5.236-5.605C154.927,3.179,156.977,5.382,156.977,8.609z M148.602,8.72c0,2.311,1.331,4.055,3.206,4.055
		c1.832,0,3.205-1.724,3.205-4.1c0-1.789-0.894-4.057-3.161-4.057C149.582,4.619,148.602,6.712,148.602,8.72z"/>
	<path fill="#FFFFFF" d="M158.852,6.712c0-1.243-0.021-2.312-0.087-3.294h1.679l0.065,2.072h0.087
		c0.48-1.417,1.635-2.312,2.923-2.312c0.218,0,0.371,0.021,0.546,0.065v1.811c-0.197-0.044-0.394-0.065-0.653-0.065
		c-1.353,0-2.313,1.025-2.575,2.464c-0.044,0.262-0.087,0.567-0.087,0.893v5.628h-1.897V6.712L158.852,6.712z"/>
	<path fill="#FFFFFF" d="M172.743,13.584c-0.5,0.26-1.611,0.608-3.03,0.608c-3.185,0-5.258-2.159-5.258-5.387
		c0-3.25,2.227-5.605,5.671-5.605c1.135,0,2.139,0.284,2.661,0.546l-0.437,1.483c-0.459-0.262-1.177-0.502-2.225-0.502
		c-2.423,0-3.73,1.789-3.73,3.993c0,2.442,1.571,3.946,3.665,3.946c1.091,0,1.81-0.283,2.355-0.523L172.743,13.584z"/>
	<path fill="#FFFFFF" d="M175.382,9.045c0.044,2.595,1.702,3.666,3.621,3.666c1.375,0,2.202-0.24,2.923-0.547l0.327,1.375
		c-0.675,0.307-1.831,0.655-3.51,0.655c-3.25,0-5.192-2.139-5.192-5.323c0-3.184,1.877-5.692,4.952-5.692
		c3.444,0,4.361,3.032,4.361,4.972c0,0.394-0.044,0.698-0.065,0.895H175.382z M181.009,7.672c0.022-1.222-0.502-3.119-2.66-3.119
		c-1.94,0-2.792,1.788-2.944,3.119H181.009z"/>
	<path fill="#FFFFFF" d="M201.052,8.348c-0.065-1.767-0.133-3.904-0.133-6.042h-0.063c-0.459,1.876-1.07,3.97-1.638,5.693
		l-1.787,5.735h-2.596l-1.571-5.692c-0.48-1.723-0.982-3.817-1.329-5.736h-0.044c-0.089,1.984-0.152,4.253-0.262,6.085l-0.262,5.583
		h-3.076l0.938-14.7h4.427l1.438,4.908c0.459,1.701,0.917,3.533,1.244,5.256h0.065c0.415-1.702,0.917-3.642,1.396-5.278l1.571-4.886
		h4.339l0.808,14.7h-3.25L201.052,8.348z"/>
	<path fill="#FFFFFF" d="M212.544,13.975l-0.196-1.068h-0.065c-0.698,0.851-1.79,1.309-3.054,1.309c-2.159,0-3.445-1.57-3.445-3.272
		c0-2.77,2.486-4.099,6.259-4.078V6.712c0-0.567-0.306-1.375-1.94-1.375c-1.092,0-2.246,0.371-2.944,0.808l-0.611-2.137
		c0.742-0.415,2.202-0.938,4.145-0.938c3.554,0,4.688,2.094,4.688,4.602v3.708c0,1.024,0.044,2.007,0.153,2.595H212.544z
		 M212.151,8.937c-1.746-0.022-3.098,0.393-3.098,1.681c0,0.85,0.567,1.264,1.308,1.264c0.829,0,1.506-0.545,1.725-1.221
		c0.043-0.175,0.065-0.371,0.065-0.567V8.937z"/>
	<path fill="#FFFFFF" d="M220.98,0.257V3.31h2.379v2.444h-2.379v3.861c0,1.286,0.306,1.875,1.31,1.875
		c0.415,0,0.742-0.044,0.982-0.088l0.021,2.508c-0.437,0.176-1.222,0.284-2.16,0.284c-1.067,0-1.961-0.37-2.486-0.915
		c-0.609-0.633-0.915-1.658-0.915-3.163V5.754h-1.416V3.31h1.416V0.998L220.98,0.257z"/>
	<path fill="#FFFFFF" d="M228.439,0.257V3.31h2.379v2.444h-2.379v3.861c0,1.286,0.306,1.875,1.308,1.875
		c0.415,0,0.744-0.044,0.984-0.088l0.02,2.508c-0.437,0.176-1.221,0.284-2.159,0.284c-1.067,0-1.962-0.37-2.485-0.915
		c-0.609-0.633-0.915-1.658-0.915-3.163V5.754h-1.419V3.31h1.419V0.998L228.439,0.257z"/>
	<path fill="#FFFFFF" d="M234.632,9.7c0.109,1.374,1.463,2.028,3.011,2.028c1.135,0,2.051-0.152,2.944-0.438l0.437,2.248
		c-1.092,0.436-2.421,0.653-3.859,0.653c-3.621,0-5.692-2.093-5.692-5.431c0-2.705,1.679-5.691,5.387-5.691
		c3.444,0,4.754,2.683,4.754,5.321c0,0.567-0.065,1.069-0.109,1.309H234.632z M238.537,7.432c0-0.806-0.348-2.16-1.875-2.16
		c-1.396,0-1.963,1.266-2.05,2.16H238.537z"/>
	<path fill="#FFFFFF" d="M243.051,6.822c0-1.571-0.043-2.595-0.087-3.512h2.857l0.106,1.963h0.09
		c0.545-1.548,1.854-2.202,2.879-2.202c0.306,0,0.458,0,0.696,0.043v3.118c-0.238-0.043-0.523-0.087-0.893-0.087
		c-1.223,0-2.052,0.655-2.271,1.68c-0.043,0.218-0.063,0.479-0.063,0.742v5.409h-3.317V6.822H243.051z"/>
	<path fill="#FFFFFF" d="M250.77,11.074c0.611,0.37,1.877,0.807,2.857,0.807c1.004,0,1.417-0.348,1.417-0.894
		c0-0.545-0.327-0.807-1.569-1.222c-2.203-0.742-3.055-1.941-3.032-3.206c0-1.985,1.7-3.49,4.339-3.49
		c1.244,0,2.355,0.283,3.011,0.611l-0.59,2.29c-0.479-0.262-1.396-0.611-2.312-0.611c-0.806,0-1.264,0.328-1.264,0.873
		c0,0.502,0.414,0.764,1.723,1.222c2.029,0.698,2.879,1.723,2.9,3.295c0,1.984-1.569,3.444-4.623,3.444
		c-1.396,0-2.639-0.306-3.446-0.74L250.77,11.074z"/>
</g>
</svg>
