<?xml version="1.0" encoding="utf-8"?>
<!-- Generator: Adobe Illustrator 16.0.0, SVG Export Plug-In . SVG Version: 6.00 Build 0)  -->
<!DOCTYPE svg PUBLIC "-//W3C//DTD SVG 1.1//EN" "http://www.w3.org/Graphics/SVG/1.1/DTD/svg11.dtd">
<svg version="1.1" id="Layer_1" xmlns="http://www.w3.org/2000/svg" xmlns:xlink="http://www.w3.org/1999/xlink" x="0px" y="0px"
	 width="268px" height="26px" viewBox="0 0 268 26" enable-background="new 0 0 268 26" xml:space="preserve">
<g>
	<path fill="#FFFFFF" d="M12.812,19.352c-0.75,0.374-2.249,0.749-4.169,0.749c-4.45,0-7.799-2.812-7.799-7.987
		c0-4.942,3.349-8.292,8.245-8.292c1.967,0,3.209,0.422,3.748,0.703l-0.492,1.663c-0.773-0.375-1.874-0.656-3.186-0.656
		c-3.701,0-6.16,2.366-6.16,6.511c0,3.865,2.225,6.348,6.066,6.348c1.241,0,2.506-0.258,3.326-0.656L12.812,19.352z"/>
	<path fill="#FFFFFF" d="M14.707,3.236h2.061v7.074h0.047c0.328-0.585,0.843-1.101,1.476-1.452c0.609-0.352,1.335-0.586,2.108-0.586
		c1.522,0,3.958,0.937,3.958,4.849v6.746h-2.061v-6.511c0-1.827-0.68-3.373-2.624-3.373c-1.335,0-2.389,0.937-2.764,2.061
		c-0.117,0.281-0.141,0.586-0.141,0.984v6.839h-2.061V3.236z"/>
	<path fill="#FFFFFF" d="M29.415,5.344c0.023,0.703-0.492,1.265-1.312,1.265c-0.726,0-1.241-0.562-1.241-1.265
		c0-0.726,0.539-1.288,1.288-1.288C28.923,4.056,29.415,4.618,29.415,5.344z M27.12,19.866V8.53h2.061v11.336H27.12z"/>
	<path fill="#FFFFFF" d="M32.014,3.236h2.061v16.63h-2.061V3.236z"/>
	<path fill="#FFFFFF" d="M46.746,3.236v13.702c0,1.007,0.023,2.155,0.094,2.928h-1.851l-0.094-1.968h-0.047
		c-0.632,1.266-2.014,2.226-3.865,2.226c-2.74,0-4.848-2.319-4.848-5.763c-0.023-3.771,2.319-6.089,5.083-6.089
		c1.733,0,2.904,0.82,3.419,1.733h0.047V3.236H46.746z M44.685,13.144c0-0.258-0.023-0.609-0.093-0.867
		c-0.305-1.312-1.429-2.389-2.975-2.389c-2.131,0-3.396,1.874-3.396,4.379c0,2.296,1.125,4.193,3.35,4.193
		c1.382,0,2.646-0.914,3.021-2.459c0.07-0.281,0.093-0.562,0.093-0.891V13.144z"/>
	<path fill="#FFFFFF" d="M49.579,12.066c0-1.335-0.023-2.482-0.094-3.537h1.803l0.07,2.225h0.094
		c0.516-1.522,1.757-2.483,3.139-2.483c0.234,0,0.398,0.023,0.585,0.07v1.944c-0.21-0.047-0.421-0.07-0.703-0.07
		c-1.452,0-2.482,1.101-2.764,2.646c-0.047,0.281-0.094,0.609-0.094,0.96v6.043h-2.038V12.066z"/>
	<path fill="#FFFFFF" d="M57.564,14.572c0.047,2.787,1.827,3.936,3.888,3.936c1.476,0,2.366-0.258,3.139-0.586l0.351,1.477
		c-0.726,0.327-1.967,0.702-3.771,0.702c-3.49,0-5.574-2.296-5.574-5.716c0-3.419,2.014-6.113,5.317-6.113
		c3.701,0,4.684,3.256,4.684,5.34c0,0.422-0.046,0.749-0.07,0.96H57.564z M63.607,13.097c0.023-1.312-0.539-3.349-2.857-3.349
		c-2.084,0-2.998,1.92-3.162,3.349H63.607z"/>
	<path fill="#FFFFFF" d="M67.564,11.598c0-1.171-0.023-2.131-0.094-3.068h1.827l0.117,1.874h0.047
		c0.562-1.078,1.874-2.132,3.748-2.132c1.569,0,4.005,0.937,4.005,4.825v6.769h-2.061v-6.535c0-1.827-0.68-3.35-2.624-3.35
		c-1.358,0-2.413,0.96-2.764,2.108c-0.094,0.258-0.141,0.609-0.141,0.96v6.816h-2.061V11.598z"/>
	<path fill="#FFFFFF" d="M81.804,3.822c-0.539,1.968-1.546,4.474-2.202,5.551l-1.312,0.164c0.515-1.382,1.124-3.818,1.382-5.504
		L81.804,3.822z"/>
	<path fill="#FFFFFF" d="M81.499,17.758c0.609,0.398,1.687,0.82,2.717,0.82c1.499,0,2.202-0.75,2.202-1.687
		c0-0.983-0.586-1.522-2.108-2.085c-2.038-0.726-2.998-1.85-2.998-3.208c0-1.827,1.476-3.326,3.912-3.326
		c1.148,0,2.155,0.328,2.787,0.703l-0.515,1.499c-0.445-0.281-1.265-0.656-2.319-0.656c-1.218,0-1.897,0.703-1.897,1.546
		c0,0.937,0.679,1.359,2.155,1.921c1.967,0.75,2.975,1.733,2.975,3.419c0,1.991-1.546,3.396-4.239,3.396
		c-1.242,0-2.389-0.305-3.186-0.772L81.499,17.758z"/>
	<path fill="#FFFFFF" d="M96.652,19.866L92.647,4.08h2.155l1.874,7.987c0.469,1.968,0.89,3.936,1.171,5.457h0.047
		c0.257-1.568,0.75-3.442,1.288-5.48l2.108-7.963h2.131l1.921,8.01c0.445,1.874,0.866,3.748,1.101,5.41h0.047
		c0.328-1.732,0.773-3.489,1.265-5.457l2.085-7.963h2.084l-4.474,15.787h-2.131l-1.991-8.221c-0.492-2.014-0.82-3.56-1.03-5.153
		h-0.047c-0.281,1.569-0.632,3.115-1.218,5.153l-2.249,8.221H96.652z"/>
	<path fill="#FFFFFF" d="M122.719,14.104c0,4.192-2.904,6.02-5.645,6.02c-3.068,0-5.434-2.249-5.434-5.833
		c0-3.794,2.483-6.019,5.621-6.019C120.517,8.272,122.719,10.638,122.719,14.104z M113.725,14.222c0,2.482,1.429,4.356,3.443,4.356
		c1.968,0,3.443-1.851,3.443-4.403c0-1.921-0.96-4.357-3.396-4.357C114.779,9.818,113.725,12.066,113.725,14.222z"/>
	<path fill="#FFFFFF" d="M124.732,12.066c0-1.335-0.023-2.482-0.094-3.537h1.803l0.07,2.225h0.094
		c0.516-1.522,1.757-2.483,3.139-2.483c0.234,0,0.398,0.023,0.585,0.07v1.944c-0.21-0.047-0.421-0.07-0.703-0.07
		c-1.452,0-2.482,1.101-2.764,2.646c-0.047,0.281-0.094,0.609-0.094,0.96v6.043h-2.038V12.066z"/>
	<path fill="#FFFFFF" d="M133.936,13.729h0.047c0.281-0.398,0.679-0.89,1.007-1.288l3.326-3.912h2.482l-4.38,4.661l4.989,6.675
		h-2.507l-3.911-5.435l-1.054,1.172v4.263h-2.038V3.236h2.038V13.729z"/>
	<path fill="#FFFFFF" d="M142.508,19.866v-9.767h-1.593V8.53h1.593V7.991c0-1.593,0.351-3.045,1.312-3.958
		c0.772-0.75,1.804-1.054,2.764-1.054c0.727,0,1.358,0.164,1.757,0.328l-0.281,1.593c-0.305-0.141-0.726-0.258-1.312-0.258
		c-1.757,0-2.202,1.546-2.202,3.279V8.53h2.741v1.569h-2.741v9.767H142.508z"/>
	<path fill="#FFFFFF" d="M158.504,14.104c0,4.192-2.904,6.02-5.645,6.02c-3.068,0-5.435-2.249-5.435-5.833
		c0-3.794,2.483-6.019,5.622-6.019C156.302,8.272,158.504,10.638,158.504,14.104z M149.51,14.222c0,2.482,1.429,4.356,3.443,4.356
		c1.967,0,3.442-1.851,3.442-4.403c0-1.921-0.96-4.357-3.396-4.357C150.563,9.818,149.51,12.066,149.51,14.222z"/>
	<path fill="#FFFFFF" d="M160.517,12.066c0-1.335-0.023-2.482-0.094-3.537h1.804l0.07,2.225h0.094
		c0.515-1.522,1.756-2.483,3.139-2.483c0.233,0,0.397,0.023,0.585,0.07v1.944c-0.211-0.047-0.422-0.07-0.702-0.07
		c-1.452,0-2.483,1.101-2.765,2.646c-0.047,0.281-0.094,0.609-0.094,0.96v6.043h-2.037V12.066z"/>
	<path fill="#FFFFFF" d="M175.436,19.445c-0.538,0.28-1.732,0.655-3.255,0.655c-3.42,0-5.646-2.319-5.646-5.786
		c0-3.489,2.39-6.019,6.09-6.019c1.219,0,2.296,0.305,2.857,0.586l-0.468,1.593c-0.492-0.281-1.265-0.539-2.39-0.539
		c-2.6,0-4.005,1.921-4.005,4.287c0,2.623,1.687,4.239,3.935,4.239c1.172,0,1.944-0.305,2.53-0.562L175.436,19.445z"/>
	<path fill="#FFFFFF" d="M178.27,14.572c0.047,2.787,1.827,3.936,3.888,3.936c1.477,0,2.366-0.258,3.139-0.586l0.352,1.477
		c-0.726,0.327-1.968,0.702-3.771,0.702c-3.49,0-5.575-2.296-5.575-5.716c0-3.419,2.015-6.113,5.317-6.113
		c3.7,0,4.685,3.256,4.685,5.34c0,0.422-0.047,0.749-0.07,0.96H178.27z M184.312,13.097c0.023-1.312-0.539-3.349-2.857-3.349
		c-2.085,0-2.998,1.92-3.162,3.349H184.312z"/>
	<path fill="#FFFFFF" d="M205.835,13.823c-0.07-1.897-0.141-4.192-0.141-6.488h-0.07c-0.491,2.014-1.147,4.263-1.757,6.113
		l-1.92,6.16h-2.787l-1.687-6.113c-0.516-1.85-1.055-4.099-1.429-6.16h-0.047c-0.094,2.131-0.164,4.567-0.281,6.535l-0.281,5.996
		h-3.303l1.008-15.787h4.754l1.546,5.27c0.492,1.827,0.984,3.794,1.335,5.645h0.07c0.445-1.827,0.984-3.911,1.499-5.668l1.687-5.247
		h4.661l0.867,15.787h-3.49L205.835,13.823z"/>
	<path fill="#FFFFFF" d="M218.177,19.866l-0.211-1.147h-0.07c-0.75,0.913-1.921,1.405-3.279,1.405c-2.318,0-3.7-1.687-3.7-3.514
		c0-2.975,2.67-4.403,6.722-4.38v-0.164c0-0.609-0.328-1.476-2.085-1.476c-1.171,0-2.412,0.398-3.161,0.867l-0.656-2.295
		c0.796-0.445,2.365-1.007,4.45-1.007c3.817,0,5.036,2.249,5.036,4.942v3.982c0,1.101,0.047,2.155,0.164,2.787H218.177z
		 M217.755,14.455c-1.874-0.023-3.326,0.422-3.326,1.805c0,0.913,0.609,1.357,1.405,1.357c0.891,0,1.616-0.585,1.851-1.311
		c0.047-0.188,0.07-0.398,0.07-0.609V14.455z"/>
	<path fill="#FFFFFF" d="M227.239,5.134v3.279h2.554v2.624h-2.554v4.146c0,1.382,0.328,2.015,1.405,2.015
		c0.445,0,0.797-0.047,1.055-0.094l0.023,2.693c-0.469,0.188-1.312,0.305-2.319,0.305c-1.147,0-2.107-0.398-2.67-0.983
		c-0.656-0.68-0.983-1.781-0.983-3.396v-4.685h-1.522V8.413h1.522V5.93L227.239,5.134z"/>
	<path fill="#FFFFFF" d="M235.248,5.134v3.279h2.554v2.624h-2.554v4.146c0,1.382,0.328,2.015,1.405,2.015
		c0.445,0,0.797-0.047,1.055-0.094l0.023,2.693c-0.469,0.188-1.312,0.305-2.319,0.305c-1.147,0-2.107-0.398-2.67-0.983
		c-0.655-0.68-0.983-1.781-0.983-3.396v-4.685h-1.522V8.413h1.522V5.93L235.248,5.134z"/>
	<path fill="#FFFFFF" d="M241.899,15.275c0.117,1.476,1.569,2.178,3.232,2.178c1.218,0,2.202-0.164,3.162-0.468l0.469,2.413
		c-1.172,0.468-2.601,0.702-4.146,0.702c-3.888,0-6.113-2.249-6.113-5.833c0-2.904,1.804-6.112,5.786-6.112
		c3.7,0,5.105,2.881,5.105,5.715c0,0.608-0.07,1.147-0.117,1.405H241.899z M246.092,12.839c0-0.866-0.374-2.319-2.014-2.319
		c-1.499,0-2.108,1.359-2.202,2.319H246.092z"/>
	<path fill="#FFFFFF" d="M250.939,12.184c0-1.687-0.047-2.787-0.094-3.771h3.068l0.117,2.108h0.094
		c0.586-1.663,1.991-2.365,3.092-2.365c0.328,0,0.492,0,0.749,0.047v3.349c-0.257-0.047-0.562-0.094-0.96-0.094
		c-1.312,0-2.202,0.703-2.436,1.804c-0.047,0.234-0.07,0.515-0.07,0.796v5.809h-3.561V12.184z"/>
	<path fill="#FFFFFF" d="M259.229,16.751c0.656,0.398,2.015,0.866,3.068,0.866c1.077,0,1.522-0.374,1.522-0.96
		c0-0.585-0.352-0.866-1.687-1.312c-2.365-0.797-3.279-2.084-3.256-3.443c0-2.132,1.827-3.748,4.661-3.748
		c1.335,0,2.53,0.304,3.232,0.656l-0.633,2.459c-0.515-0.281-1.499-0.656-2.482-0.656c-0.866,0-1.358,0.352-1.358,0.937
		c0,0.539,0.445,0.82,1.851,1.312c2.178,0.75,3.092,1.85,3.115,3.538c0,2.131-1.687,3.7-4.966,3.7c-1.499,0-2.834-0.328-3.701-0.796
		L259.229,16.751z"/>
</g>
</svg>
